<?xml version="1.0" encoding="utf-8"?>
<!-- Generator: Adobe Illustrator 21.1.0, SVG Export Plug-In . SVG Version: 6.00 Build 0)  -->
<svg version="1.1" id="Camada_1" xmlns="http://www.w3.org/2000/svg" xmlns:xlink="http://www.w3.org/1999/xlink" x="0px" y="0px"
	 viewBox="0 0 141.7 35" style="enable-background:new 0 0 141.7 35;" xml:space="preserve">
<style type="text/css">
	.st0{fill:#FFFFFF;}
</style>
<g>
	<path class="st0" d="M7,15.9c-1.5,2.2-2.4,4.8-2.4,7.7c0,1,0.1,2.1,0.3,3.1l0,0.1c4.2,1.6,11.3-1.3,11.3-1.3
		C10.1,22.7,7.8,18.4,7,15.9L7,15.9z"/>
	<path class="st0" d="M31.4,10.1c0.7,1.9,1.1,3.9,1.1,6c0,9.2-7.4,16.6-16.6,16.6c-4,0-7.6-1.4-10.5-3.7c3,3.2,7.2,5.1,11.8,5.1
		c8.9,0,16.2-7.2,16.2-16.2C33.5,15.1,32.7,12.4,31.4,10.1L31.4,10.1z"/>
	<path class="st0" d="M27.1,4.2c0.3,1.4,0.4,2.8,0.4,4.3c0,10.9-8.3,19.6-18.5,19.6c-1.5,0-2.9-0.2-4.2-0.5
		c2.9,2.7,6.8,4.4,11.1,4.4c8.9,0,16.2-7.2,16.2-16.2C32.1,11.2,30.1,7.1,27.1,4.2L27.1,4.2z"/>
	<path class="st0" d="M56.3,8.5c-2.6,0-4.5,0.9-5.8,2.6c-1.3-1.7-3.3-2.6-5.8-2.6c-2.2,0-4,0.8-5.5,2.3c-1.5,1.5-2.3,3.4-2.3,5.5
		v8.9c0,0.5,0.2,1,0.6,1.4c0.4,0.4,0.9,0.6,1.4,0.6h0c0.5,0,1-0.2,1.4-0.6c0.4-0.4,0.6-0.8,0.6-1.4v-8.9c0-1.1,0.4-2,1.1-2.7
		c0.7-0.7,1.7-1.1,2.7-1.1c1.1,0,2,0.4,2.7,1.1c0.7,0.8,1.1,1.7,1.1,2.7v8.9c0,0.6,0.2,1,0.6,1.4c0.4,0.4,0.9,0.6,1.4,0.6h0
		c0.5,0,1-0.2,1.4-0.6c0.4-0.4,0.6-0.8,0.6-1.4v-8.9c0-1.1,0.4-2,1.1-2.7c0.7-0.7,1.7-1.1,2.7-1.1c1.1,0,2,0.4,2.7,1.1
		c0.7,0.8,1.1,1.7,1.1,2.7v8.9c0,0.5,0.2,1,0.6,1.4c0.4,0.4,0.8,0.6,1.4,0.6h0c0.5,0,1-0.2,1.4-0.6c0.4-0.4,0.6-0.8,0.6-1.4v-8.9
		c0-2.1-0.8-4-2.3-5.5C60.3,9.3,58.5,8.5,56.3,8.5L56.3,8.5z"/>
	<path class="st0" d="M75.1,8.5c-2.6,0-4.8,0.9-6.6,2.8c-1.8,1.8-2.7,4-2.7,6.6s0.9,4.8,2.7,6.6c1.8,1.8,4,2.7,6.6,2.7
		c2.3,0,4.1-0.6,5.4-2c0,0.6,0.2,1,0.6,1.4c0.4,0.4,0.9,0.6,1.4,0.6h0c0.5,0,1-0.2,1.4-0.6c0.4-0.4,0.6-0.8,0.6-1.4v-7.4
		c0-2.6-0.9-4.8-2.8-6.6C79.8,9.4,77.6,8.5,75.1,8.5L75.1,8.5z M78.9,21.7L78.9,21.7c-1,1-2.3,1.6-3.8,1.6c-1.5,0-2.8-0.5-3.8-1.6
		c-1-1.1-1.6-2.3-1.6-3.8c0-1.5,0.5-2.8,1.6-3.8c1.1-1.1,2.3-1.6,3.8-1.6c1.5,0,2.8,0.5,3.8,1.6c1.1,1.1,1.6,2.3,1.6,3.8
		C80.4,19.4,79.9,20.7,78.9,21.7L78.9,21.7z"/>
	<path class="st0" d="M123.1,10.5L123.1,10.5c0-0.6-0.2-1-0.6-1.4c-0.4-0.4-0.9-0.6-1.4-0.6h-0.9c-2,0-3.7,0.7-5.1,2.1
		c-1.4,1.4-2.1,3.1-2.1,5.1v9.6c0,0.6,0.2,1,0.6,1.4c0.4,0.4,0.9,0.6,1.4,0.6h0c0.5,0,1-0.2,1.4-0.6c0.4-0.4,0.6-0.8,0.6-1.4v-9.6
		c0-0.9,0.3-1.6,0.9-2.3c0.6-0.6,1.4-0.9,2.3-0.9h0.9c0.5,0,1-0.2,1.4-0.6C122.9,11.5,123.1,11.1,123.1,10.5L123.1,10.5z"/>
	<path class="st0" d="M138.1,11.3c-1.8-1.8-4-2.8-6.6-2.8c-2.6,0-4.8,0.9-6.6,2.8c-1.8,1.8-2.8,4-2.8,6.6s0.9,4.8,2.8,6.6
		c1.8,1.8,4,2.7,6.6,2.7c2.3,0,4.1-0.6,5.4-2c0,0.6,0.2,1,0.6,1.4c0.4,0.4,0.9,0.6,1.4,0.6h0c0.5,0,1-0.2,1.4-0.6
		c0.4-0.4,0.6-0.8,0.6-1.4v-7.4C140.9,15.3,140,13.1,138.1,11.3L138.1,11.3z M135.3,21.7L135.3,21.7c-1,1-2.3,1.6-3.8,1.6
		c-1.5,0-2.8-0.5-3.8-1.6c-1-1.1-1.6-2.3-1.6-3.8c0-1.5,0.5-2.8,1.6-3.8c1.1-1.1,2.3-1.6,3.8-1.6s2.8,0.5,3.8,1.6
		c1.1,1.1,1.6,2.3,1.6,3.8C136.9,19.4,136.4,20.7,135.3,21.7L135.3,21.7z"/>
	<path class="st0" d="M108.2,10.3c-1.5-1-3.2-1.5-5-1.5c-2.5,0-4.7,0.9-6.5,2.7c-1.8,1.8-2.7,4-2.7,6.5c0,2.5,0.9,4.7,2.7,6.5
		c1.8,1.8,4,2.7,6.5,2.7c1.1,0,2.2-0.2,3.2-0.6c1.2-0.4,1.7-1.9,0.9-3c-0.5-0.7-1.4-1-2.2-0.7c-0.6,0.2-1.2,0.3-1.9,0.3
		c-1.7,0-3-0.5-3.8-1.5c0.5-0.2,2.3-1.1,5.3-2.4c2.4-1.1,4.4-2,5.9-2.7c0.5-0.2,0.8-0.6,1-1.1c0.1-0.2,0.1-0.4,0.1-0.7
		c0-0.3-0.1-0.5-0.2-0.8C110.9,12.6,109.8,11.3,108.2,10.3L108.2,10.3z M97.9,18.2L97.9,18.2v-0.1c0-1.5,0.5-2.7,1.5-3.8
		c1-1,2.3-1.5,3.8-1.5c1.6,0,2.9,0.5,3.6,1.4L97.9,18.2z"/>
	<path class="st0" d="M92.5,23.3h-1.3c-0.3,0-0.6-0.1-0.8-0.3c-0.2-0.2-0.3-0.5-0.3-0.8v-9.8l4-1.8C95,10.2,95.5,9,95,8l0,0
		c-0.5-1-1.6-1.4-2.6-0.9l-2.3,1V4.2c0-0.5-0.2-1-0.6-1.4c-0.4-0.4-0.8-0.6-1.4-0.6h0c-0.5,0-1,0.2-1.4,0.6
		c-0.4,0.4-0.6,0.9-0.6,1.4v18c0,1.4,0.5,2.6,1.5,3.6c1,1,2.2,1.5,3.6,1.5h1.3c0.5,0,1-0.2,1.4-0.6c0.4-0.4,0.6-0.8,0.6-1.4v0
		c0-0.5-0.2-1-0.6-1.4C93.5,23.5,93,23.3,92.5,23.3L92.5,23.3z"/>
	<path class="st0" d="M26.5,4c-2.7-1.9-6-3.1-9.5-3.1C8.1,0.9,0.8,8.1,0.8,17.1c0,4,1.1,7,3.5,9.8C4.1,25.8,4,24.6,4,23.4
		c0-8.9,7.6-15.5,16.5-15.5c2.2,0,4.4,0.5,6.3,1.3C26.9,8.6,27,5.7,26.5,4L26.5,4z"/>
</g>
</svg>
